<svg width="64" height="64" fill="none" xmlns="http://www.w3.org/2000/svg"><path d="M27.71 2.5H8A5.51 5.51 0 002.5 8v19.71a1.5 1.5 0 001.5 1.5h19.71a5.5 5.5 0 005.5-5.5V4a1.5 1.5 0 00-1.5-1.5zm-1.5 21.21a2.5 2.5 0 01-2.5 2.5H5.5V8A2.5 2.5 0 018 5.5h18.21v18.21zm-2.5 11.08H4a1.5 1.5 0 00-1.5 1.5V56A5.51 5.51 0 008 61.5h19.71a1.5 1.5 0 001.5-1.5V40.29a5.5 5.5 0 00-5.5-5.5zm2.5 23.71H8A2.5 2.5 0 015.5 56V37.79h18.21a2.5 2.5 0 012.5 2.5V58.5zM60 34.79H40.29a5.5 5.5 0 00-5.5 5.5V60a1.5 1.5 0 001.5 1.5H56a5.51 5.51 0 005.5-5.5V36.29a1.5 1.5 0 00-1.5-1.5zM58.5 56a2.5 2.5 0 01-2.5 2.5H37.79V40.29a2.5 2.5 0 012.5-2.5H58.5V56zM40.29 21.36h2.35v2.35a5.5 5.5 0 0011 0v-2.35H56a5.5 5.5 0 000-11h-2.36V8a5.5 5.5 0 10-11 0v2.36h-2.35a5.5 5.5 0 000 11zm0-8h3.85a1.5 1.5 0 001.5-1.5V8a2.5 2.5 0 115 0v3.86a1.5 1.5 0 001.5 1.5H56a2.5 2.5 0 110 5h-3.86a1.5 1.5 0 00-1.5 1.5v3.85a2.5 2.5 0 01-5 0v-3.85a1.5 1.5 0 00-1.5-1.5h-3.85a2.5 2.5 0 010-5z" fill="#000"/></svg>