<svg xmlns="http://www.w3.org/2000/svg" width="450" viewBox="0 0 375 375" height="450" version="1.0"><defs><clipPath id="a"><path d="M113 115.031h149v144.75H113zm0 0"/></clipPath></defs><g clip-path="url(#a)"><path fill="#010101" d="M259.402 145.277l-19.308-26.386c-1.754-2.454-4.547-3.86-7.664-3.86h-89.762c-3.117 0-5.91 1.406-7.645 3.836l-19.28 26.352c-2.407 3.094-2.555 7.55-.384 10.808l64.371 99.61a9.62 9.62 0 007.91 4.148c3.215 0 6.122-1.586 7.762-4.21l64.375-99.618c2.106-3.496 1.938-7.71-.375-10.68zm-4.273 2.766h-38.277l19.183-26.086zm-67.453 97.687l-20.973-92.605h41.945zm0-123.855l19.148 26.168h-38.297zm-24.16 24.41l-19.25-26.176h38.402zm29.168-26.176h38.402l-19.25 26.176zm-53.54 1.735c.012-.024.032-.035.047-.055l19.305 26.254H119.97zm-19.535 31.394c-.023-.035-.027-.078-.05-.113h41.925l22.618 99.844c-.043-.051-.102-.094-.137-.153zm71.754 99.223l22.5-99.336h41.664c-.027.05-.035.102-.062.148zm0 0"/></g></svg>