<svg xmlns="http://www.w3.org/2000/svg" xmlns:xlink="http://www.w3.org/1999/xlink" width="500" zoomAndPan="magnify" viewBox="0 0 375 374.999991" height="500" preserveAspectRatio="xMidYMid meet" version="1.0"><defs><clipPath id="79e359a17b"><path d="M 112.5 112.5 L 262.5 112.5 L 262.5 262.5 L 112.5 262.5 Z M 112.5 112.5 " clip-rule="nonzero"/></clipPath></defs><g clip-path="url(#79e359a17b)"><path fill="#e08709" d="M 252.371094 112.449219 L 136.765625 112.449219 C 131.234375 112.449219 126.730469 116.953125 126.730469 122.480469 L 126.730469 144.582031 L 123.164062 144.582031 C 117.253906 144.582031 112.449219 149.390625 112.449219 155.292969 L 112.449219 240.980469 C 112.449219 246.886719 117.253906 251.6875 123.164062 251.6875 L 148.152344 251.6875 C 148.152344 257.601562 152.957031 262.402344 158.863281 262.402344 L 187.425781 262.402344 C 193.332031 262.402344 198.132812 257.601562 198.132812 251.6875 L 198.132812 248.121094 L 223.128906 248.121094 C 225.105469 248.121094 226.699219 246.523438 226.699219 244.554688 C 226.699219 242.578125 225.105469 240.980469 223.128906 240.980469 L 217.085938 240.980469 L 212.660156 212.417969 L 252.550781 212.417969 C 257.980469 212.417969 262.402344 208 262.402344 202.5625 L 262.402344 122.480469 C 262.402344 116.953125 257.898438 112.449219 252.371094 112.449219 Z M 133.871094 122.480469 C 133.871094 120.890625 135.171875 119.589844 136.765625 119.589844 L 252.371094 119.589844 C 253.964844 119.589844 255.261719 120.890625 255.261719 122.480469 L 255.261719 183.859375 L 183.859375 183.859375 L 183.859375 155.292969 C 183.859375 149.390625 179.050781 144.582031 173.144531 144.582031 L 133.871094 144.582031 Z M 119.589844 166.003906 L 176.71875 166.003906 L 176.71875 183.859375 L 158.863281 183.859375 C 152.957031 183.859375 148.152344 188.660156 148.152344 194.566406 L 148.152344 230.273438 L 119.589844 230.273438 Z M 155.292969 205.277344 L 190.992188 205.277344 L 190.992188 240.980469 L 155.292969 240.980469 Z M 190.992188 194.566406 L 190.992188 198.132812 L 155.292969 198.132812 L 155.292969 194.566406 C 155.292969 192.597656 156.894531 190.992188 158.863281 190.992188 L 187.425781 190.992188 C 189.394531 190.992188 190.992188 192.597656 190.992188 194.566406 Z M 123.164062 151.722656 L 173.144531 151.722656 C 175.113281 151.722656 176.71875 153.328125 176.71875 155.292969 L 176.71875 158.863281 L 119.589844 158.863281 L 119.589844 155.292969 C 119.589844 153.328125 121.1875 151.722656 123.164062 151.722656 Z M 123.164062 244.554688 C 121.1875 244.554688 119.589844 242.949219 119.589844 240.980469 L 119.589844 237.414062 L 148.152344 237.414062 L 148.152344 244.554688 Z M 187.425781 255.261719 L 158.863281 255.261719 C 156.894531 255.261719 155.292969 253.65625 155.292969 251.6875 L 155.292969 248.121094 L 190.992188 248.121094 L 190.992188 251.6875 C 190.992188 253.65625 189.394531 255.261719 187.425781 255.261719 Z M 209.859375 240.980469 L 198.132812 240.980469 L 198.132812 212.417969 L 205.429688 212.417969 Z M 255.261719 202.5625 C 255.261719 204.0625 254.042969 205.277344 252.550781 205.277344 L 198.132812 205.277344 L 198.132812 194.566406 C 198.132812 193.875 198.058594 193.210938 197.933594 192.550781 C 197.890625 192.351562 197.828125 192.152344 197.777344 191.945312 C 197.695312 191.628906 197.632812 191.304688 197.527344 190.992188 L 255.261719 190.992188 L 255.261719 202.5625 " fill-opacity="1" fill-rule="nonzero"/></g></svg>