<svg xmlns="http://www.w3.org/2000/svg" width="500" viewBox="0 0 375 375" height="500" version="1.0"><defs><clipPath id="a"><path d="M112.5 112.5h150v150h-150zm0 0"/></clipPath></defs><g clip-path="url(#a)"><path fill="#040606" d="M252.371 112.45H136.766c-5.532 0-10.036 4.503-10.036 10.03v22.102h-3.566c-5.91 0-10.715 4.809-10.715 10.711v85.687c0 5.907 4.805 10.708 10.715 10.708h24.988c0 5.914 4.805 10.714 10.711 10.714h28.563c5.906 0 10.707-4.8 10.707-10.714v-3.567h24.996a3.566 3.566 0 003.57-3.566 3.568 3.568 0 00-3.57-3.575h-6.043l-4.426-28.562h39.89c5.43 0 9.852-4.418 9.852-9.856V122.48c0-5.527-4.504-10.03-10.03-10.03zm-118.5 10.03a2.9 2.9 0 012.895-2.89H252.37c1.594 0 2.89 1.3 2.89 2.89v61.38h-71.4v-28.567c0-5.902-4.808-10.711-10.714-10.711H133.87zm-14.281 43.524h57.129v17.855h-17.856c-5.906 0-10.71 4.801-10.71 10.707v35.707H119.59zm35.703 39.273h35.7v35.703h-35.7zm35.7-10.71v3.566h-35.7v-3.567a3.578 3.578 0 013.57-3.574h28.563a3.574 3.574 0 013.566 3.574zm-67.829-42.844h49.98a3.58 3.58 0 013.575 3.57v3.57h-57.13v-3.57a3.575 3.575 0 013.575-3.57zm0 92.832a3.576 3.576 0 01-3.574-3.575v-3.566h28.562v7.14zm64.262 10.707h-28.563a3.578 3.578 0 01-3.57-3.575v-3.566h35.7v3.566a3.574 3.574 0 01-3.567 3.575zm22.433-14.282h-11.726v-28.562h7.297zm45.403-38.417c0 1.5-1.219 2.714-2.711 2.714h-54.418v-10.71c0-.692-.074-1.356-.2-2.016-.042-.2-.105-.399-.156-.606-.082-.316-.144-.64-.25-.953h57.735v11.57"/></g></svg>