<svg xmlns="http://www.w3.org/2000/svg" width="500" viewBox="0 0 375 375" height="500" version="1.0"><defs><clipPath id="a"><path d="M185 112.5h5V127h-5zm0 0"/></clipPath><clipPath id="b"><path d="M124.219 173H139v6h-14.781zm0 0"/></clipPath><clipPath id="c"><path d="M236 173h14.969v6H236zm0 0"/></clipPath><clipPath id="d"><path d="M180 257h15v5.5h-15zm0 0"/></clipPath></defs><path d="M187.594 131.25c-24.645 0-44.598 19.688-44.598 43.945 0 10.547 3.875 20.743 10.914 28.711 1.41 1.64 3.05 3.164 4.461 4.805 1.879 2.344 5.516 7.383 8.45 14.18a47.17 47.17 0 013.519 12.304c.59 3.516 3.523 6.094 7.043 6.094h20.422c3.52 0 6.57-2.578 7.043-6.094.586-3.984 1.757-8.086 3.52-12.07 2.464-5.742 4.929-9.844 6.687-12.188 1.41-1.992 3.172-3.632 4.812-5.39 7.98-8.203 12.442-18.984 12.442-30.352-.118-24.257-20.07-43.945-44.715-43.945zm28.87 71.133c-1.878 1.875-3.753 3.75-5.28 5.976-1.762 2.578-4.461 7.032-7.043 13.125-1.875 4.336-3.168 8.79-3.754 13.243-.235 1.171-1.293 2.109-2.465 2.109h-3.285v-7.031a2.354 2.354 0 00-2.348-2.344 2.351 2.351 0 00-2.348 2.344v7.03h-4.695v-45c0-1.523 0-2.226.469-2.694 1.176-1.172 2.816-1.875 4.93-2.227h.117l1.058-.234c2.11 1.406 4.575 1.406 6.336 1.406 2.114 0 4.227-.703 5.985-1.875 2.347.586 4.578.586 6.925-.117 5.633-1.524 9.977-6.446 10.68-12.188.703-5.86-1.996-11.601-6.926-14.531-.937-4.922-5.164-8.555-10.093-8.555h-.938c-1.762-2.93-4.812-4.922-8.215-5.156h-1.527c-1.524.117-2.934.586-4.223 1.29a10.283 10.283 0 00-6.101-1.993c-3.055 0-5.754 1.289-7.746 3.516-.707-.118-1.41-.235-2.114-.235-4.46 0-8.332 2.93-9.742 7.031-4.344 1.29-7.394 5.391-7.394 10.079 0 .937.117 1.992.351 2.93-1.992 1.991-3.285 4.687-3.285 7.616 0 2.696 1.059 5.274 2.816 7.266v.234c2.582 9.727 10.094 11.016 10.446 11.016 1.293.234 2.465-.703 2.699-1.992.234-1.29-.703-2.461-1.875-2.695-.238 0-4.695-.938-6.574-7.266v-.117c0-.703-.235-1.524-.82-1.992-1.294-1.055-1.997-2.696-1.997-4.454 0-1.757.703-3.398 1.996-4.453l.118-.117c.937-.82 2.23-1.289 3.402-1.172 1.293.117 2.465.703 3.285 1.64.469.587 1.176.821 1.762.821.586 0 1.054-.234 1.527-.586.938-.82 1.055-2.344.234-3.281a8.977 8.977 0 00-6.574-3.281 7.355 7.355 0 00-3.168.351v-.351c0-2.93 2.114-5.39 4.93-5.742 1.055-.118 1.879-.938 1.996-1.875.469-2.579 2.582-4.57 5.043-4.688h.121c1.992 0 3.871 1.29 4.574 3.281.235.47.235 1.055.235 1.64a2.354 2.354 0 002.347 2.345 2.351 2.351 0 002.348-2.344c0-1.055-.234-2.11-.586-3.164-.469-1.406-1.293-2.695-2.348-3.75.938-.82 2.23-1.29 3.52-1.29 1.059 0 2.113.352 3.055.938-.707 1.407-1.176 2.93-1.176 4.57a2.351 2.351 0 002.348 2.344 2.354 2.354 0 002.347-2.343c0-2.696 2.113-4.922 4.696-4.922 2.347 0 4.457 1.523 5.28 3.867.47 1.172 1.759 1.875 2.934 1.523.586-.117 1.055-.234 1.641-.234 2.582 0 4.813 1.875 5.398 4.336v.117c-.468 1.992-2.109 3.633-4.105 3.867-1.293.118-2.23 1.29-1.996 2.578.117 1.172 1.176 1.993 2.348 1.993h.351c2.816-.352 5.281-1.993 6.809-4.453 2.699 2.109 4.105 5.625 3.636 9.14-.468 3.984-3.402 7.266-7.16 8.32-1.875.47-3.754.47-5.515-.234-.82-.234-1.758-.117-2.348.469-1.055.937-2.348 1.523-3.754 1.523h-.234c1.996-2.344 2.816-5.508 1.996-8.672-.356-1.289-1.645-1.992-2.817-1.64-1.293.351-1.996 1.64-1.644 2.812.703 2.696-.82 5.39-3.403 6.094h-.117l-1.879.469c-3.992.469-6.34 2.226-7.629 3.633-1.761 1.875-1.761 4.101-1.761 5.859v44.883h-3.168c-1.172 0-2.23-.938-2.465-2.11-.703-4.453-1.996-9.023-3.871-13.476-2.934-6.914-6.574-12.07-9.04-15.235-1.405-1.757-3.05-3.28-4.573-5.039a38.652 38.652 0 01-9.743-25.664c0-21.68 17.957-39.257 39.903-39.257 21.945 0 39.902 17.578 39.902 39.257 0 10.196-3.988 19.805-11.031 27.188zm0 0"/><g clip-path="url(#a)"><path d="M187.594 126.563a2.354 2.354 0 002.347-2.344v-9.375a2.354 2.354 0 00-2.347-2.344 2.354 2.354 0 00-2.348 2.344v9.375a2.354 2.354 0 002.348 2.344zm0 0"/></g><path d="M165.648 129.023c.352.938 1.29 1.407 2.11 1.407.355 0 .59 0 .941-.235 1.172-.468 1.762-1.875 1.29-3.047l-3.637-8.671c-.47-1.172-1.88-1.758-3.051-1.29-1.176.47-1.762 1.876-1.293 3.047zm-16.902 11.367c.59.587 1.41 1.173 2.23 1.29.235 0 .587 0 .82-.118 1.06-.468 1.763-1.64 1.411-2.695-.234-.703-.703-1.289-1.293-1.758-1.758-1.757-3.52-3.515-5.398-5.273-.47-.469-.82-.82-1.407-1.055-.82-.351-1.879-.117-2.464.469-.586.586-.82 1.64-.47 2.46.235.587.704 1.056 1.055 1.407 1.997 1.64 3.758 3.399 5.516 5.274zm-7.98 13.477l-8.684-3.633c-1.172-.468-2.582.118-3.05 1.29-.47 1.171.116 2.578 1.288 3.046l8.688 3.633c1.172.469 2.582-.117 3.05-1.289.47-1.172-.117-2.578-1.292-3.047zm0 0"/><g clip-path="url(#b)"><path d="M135.953 173.438h-9.387a2.351 2.351 0 00-2.347 2.343 2.351 2.351 0 002.347 2.344h9.387a2.351 2.351 0 002.348-2.344 2.351 2.351 0 00-2.348-2.344zm0 0"/></g><g clip-path="url(#c)"><path d="M248.621 173.438h-9.387a2.351 2.351 0 00-2.347 2.343 2.351 2.351 0 002.347 2.344h9.387a2.351 2.351 0 002.348-2.344 2.351 2.351 0 00-2.348-2.344zm0 0"/></g><path d="M246.156 151.523c-.469-1.171-1.879-1.757-3.05-1.289l-8.684 3.633c-1.176.469-1.762 1.875-1.293 3.047.351.938 1.293 1.406 2.113 1.406.352 0 .586 0 .938-.234l8.687-3.633c1.172-.351 1.758-1.64 1.29-2.93zm-13.73-20.507c-.938-.938-2.348-.938-3.285 0l-6.692 6.68c-.937.937-.937 2.343 0 3.28a2.322 2.322 0 001.645.704c.586 0 1.172-.235 1.64-.703l6.692-6.68c.937-.82.937-2.344 0-3.281zm-25.938-.703c.352.117.586.234.942.234.937 0 1.757-.586 2.11-1.406l3.64-8.672c.468-1.172-.118-2.578-1.293-3.047-1.172-.469-2.582.117-3.051 1.289l-3.637 8.555c-.472 1.171.117 2.578 1.29 3.046zm-7.16 113.437H175.86a2.351 2.351 0 00-2.347 2.344 2.351 2.351 0 002.347 2.344h23.47a2.351 2.351 0 002.347-2.344 2.351 2.351 0 00-2.348-2.344zm-2.344 7.031h-18.78a2.35 2.35 0 00-2.345 2.344 2.35 2.35 0 002.344 2.344h18.781a2.35 2.35 0 002.344-2.344 2.35 2.35 0 00-2.344-2.344zm0 0"/><g clip-path="url(#d)"><path d="M192.29 257.813h-9.392a2.354 2.354 0 00-2.347 2.343 2.354 2.354 0 002.347 2.344h9.391a2.354 2.354 0 002.348-2.344 2.354 2.354 0 00-2.348-2.344zm0 0"/></g></svg>