<svg xmlns="http://www.w3.org/2000/svg" width="500" viewBox="0 0 375 375" height="500" version="1.0"><defs><clipPath id="a"><path d="M185 108.93h6V124h-6zm0 0"/></clipPath><clipPath id="b"><path d="M121.203 172H136v6h-14.797zm0 0"/></clipPath><clipPath id="c"><path d="M239 172h14.953v6H239zm0 0"/></clipPath><clipPath id="d"><path d="M180 261h15v5.43h-15zm0 0"/></clipPath></defs><path fill="#e08709" d="M187.578 128.617c-25.812 0-46.707 20.672-46.707 46.14 0 11.075 4.059 21.782 11.434 30.15 1.472 1.722 3.195 3.32 4.668 5.042 1.968 2.461 5.777 7.754 8.851 14.89a49.674 49.674 0 013.688 12.919c.613 3.691 3.687 6.398 7.375 6.398h21.386c3.688 0 6.883-2.707 7.375-6.398.614-4.184 1.844-8.488 3.688-12.672 2.582-6.031 5.16-10.336 7.004-12.797 1.476-2.094 3.32-3.816 5.043-5.66 8.355-8.613 13.027-19.934 13.027-31.871-.12-25.469-21.02-46.14-46.832-46.14zm30.238 74.688c-1.964 1.968-3.933 3.937-5.53 6.277-1.845 2.707-4.673 7.383-7.376 13.781-1.965 4.551-3.316 9.227-3.933 13.903-.247 1.23-1.352 2.214-2.582 2.214h-3.442v-7.382a2.467 2.467 0 00-2.457-2.461 2.467 2.467 0 00-2.457 2.46v7.383h-4.918v-47.25c0-1.597 0-2.335.492-2.828 1.23-1.23 2.95-1.968 5.164-2.34h.121l1.106-.246c2.215 1.477 4.793 1.477 6.637 1.477 2.214 0 4.425-.738 6.27-1.969 2.456.617 4.792.617 7.253-.12 5.899-1.602 10.445-6.77 11.184-12.798.738-6.152-2.09-12.183-7.25-15.258-.985-5.168-5.41-8.984-10.575-8.984h-.98c-1.844-3.074-5.04-5.168-8.606-5.414h-1.598c-1.597.125-3.073.617-4.425 1.355a10.729 10.729 0 00-6.39-2.093c-3.196 0-6.024 1.355-8.114 3.691-.738-.121-1.472-.246-2.21-.246-4.673 0-8.727 3.078-10.204 7.383-4.547 1.355-7.742 5.66-7.742 10.582 0 .984.121 2.094.367 3.078-2.09 2.09-3.441 4.922-3.441 7.996 0 2.832 1.105 5.54 2.949 7.629v.246c2.707 10.215 10.57 11.566 10.941 11.566 1.352.247 2.582-.738 2.828-2.09.243-1.355-.738-2.585-1.968-2.831-.246 0-4.918-.985-6.883-7.63v-.12c0-.739-.246-1.602-.86-2.094-1.351-1.106-2.09-2.828-2.09-4.676 0-1.844.739-3.566 2.09-4.676l.122-.12c.984-.864 2.336-1.356 3.566-1.231a5.17 5.17 0 013.441 1.722c.493.614 1.227.86 1.844.86.613 0 1.106-.246 1.598-.613.984-.864 1.105-2.461.246-3.446a9.378 9.378 0 00-6.883-3.445 7.688 7.688 0 00-3.32.367v-.367c0-3.078 2.21-5.66 5.164-6.031 1.105-.121 1.965-.985 2.09-1.97.488-2.706 2.703-4.796 5.285-4.921h.12c2.09 0 4.056 1.355 4.794 3.445.246.493.246 1.11.246 1.723a2.465 2.465 0 002.457 2.46 2.466 2.466 0 002.461-2.46c0-1.106-.246-2.215-.617-3.32-.488-1.477-1.352-2.832-2.457-3.938.984-.863 2.336-1.355 3.687-1.355 1.106 0 2.215.37 3.196.984-.739 1.477-1.227 3.078-1.227 4.8a2.467 2.467 0 002.457 2.462 2.467 2.467 0 002.457-2.461c0-2.832 2.215-5.168 4.918-5.168 2.457 0 4.672 1.598 5.531 4.058.492 1.23 1.844 1.97 3.075 1.602.613-.125 1.105-.246 1.718-.246 2.703 0 5.04 1.969 5.656 4.55v.126c-.492 2.09-2.214 3.812-4.304 4.058-1.352.125-2.336 1.356-2.09 2.707.125 1.23 1.23 2.094 2.46 2.094h.368c2.95-.371 5.531-2.094 7.129-4.676 2.828 2.215 4.3 5.907 3.809 9.598-.489 4.184-3.563 7.629-7.496 8.734-1.965.493-3.934.493-5.778-.246-.86-.246-1.844-.12-2.457.492-1.105.985-2.46 1.602-3.933 1.602h-.247c2.09-2.46 2.95-5.785 2.09-9.105-.37-1.356-1.722-2.094-2.949-1.723-1.351.367-2.09 1.723-1.723 2.953.739 2.828-.859 5.66-3.562 6.398h-.125l-1.965.493c-4.18.492-6.637 2.336-7.992 3.812-1.844 1.969-1.844 4.309-1.844 6.152v47.13h-3.316c-1.23 0-2.336-.985-2.582-2.215-.739-4.676-2.09-9.477-4.055-14.153-3.074-7.258-6.883-12.672-9.465-15.996-1.476-1.844-3.195-3.445-4.793-5.289a40.65 40.65 0 01-10.203-26.95c0-22.76 18.805-41.218 41.79-41.218 22.987 0 41.792 18.457 41.792 41.219 0 10.707-4.18 20.797-11.555 28.547zm0 0"/><g clip-path="url(#a)"><path fill="#e08709" d="M187.578 123.695a2.468 2.468 0 002.461-2.46v-9.844a2.466 2.466 0 00-2.46-2.461 2.465 2.465 0 00-2.458 2.46v9.844a2.467 2.467 0 002.457 2.461zm0 0"/></g><path fill="#e08709" d="M164.594 126.277c.37.985 1.351 1.477 2.215 1.477.367 0 .613 0 .98-.246 1.23-.492 1.844-1.969 1.352-3.2l-3.809-9.105c-.492-1.23-1.965-1.844-3.195-1.351-1.23.492-1.844 1.968-1.352 3.199zm-17.699 11.938c.613.613 1.476 1.23 2.335 1.351.247 0 .614 0 .86-.12 1.105-.493 1.844-1.723 1.476-2.833-.246-.738-.738-1.351-1.351-1.843-1.844-1.848-3.688-3.692-5.656-5.54-.493-.492-.86-.859-1.473-1.105-.863-.371-1.969-.125-2.582.492-.613.613-.86 1.723-.492 2.582.246.617.738 1.11 1.105 1.477 2.09 1.722 3.934 3.57 5.778 5.539zm-8.36 14.148l-9.094-3.812c-1.23-.492-2.703.12-3.195 1.351-.492 1.23.121 2.707 1.352 3.2l9.093 3.816c1.23.492 2.707-.125 3.2-1.356.488-1.23-.125-2.707-1.356-3.199zm0 0"/><g clip-path="url(#b)"><path fill="#e08709" d="M133.496 172.914h-9.832a2.465 2.465 0 00-2.457 2.461 2.467 2.467 0 002.457 2.46h9.832a2.47 2.47 0 002.461-2.46c0-1.355-1.11-2.46-2.46-2.46zm0 0"/></g><g clip-path="url(#c)"><path fill="#e08709" d="M251.496 172.914h-9.832a2.466 2.466 0 00-2.46 2.461 2.468 2.468 0 002.46 2.46h9.832a2.467 2.467 0 002.457-2.46 2.465 2.465 0 00-2.457-2.46zm0 0"/></g><path fill="#e08709" d="M248.914 149.902c-.492-1.23-1.965-1.843-3.195-1.351l-9.098 3.812c-1.226.492-1.844 1.969-1.351 3.2.37.984 1.351 1.476 2.214 1.476.368 0 .614 0 .98-.246l9.099-3.813c1.23-.37 1.843-1.722 1.351-3.078zm-14.383-21.531c-.98-.984-2.457-.984-3.441 0l-7.004 7.012c-.984.984-.984 2.46 0 3.445.492.492 1.105.738 1.719.738.617 0 1.23-.246 1.722-.738l7.004-7.012c.985-.863.985-2.46 0-3.445zm-27.164-.738c.371.12.617.246.985.246.984 0 1.843-.617 2.214-1.477l3.809-9.105c.492-1.23-.121-2.707-1.352-3.2-1.23-.492-2.703.122-3.195 1.352l-3.812 8.985c-.493 1.23.125 2.707 1.351 3.199zm-7.496 119.109H175.29a2.468 2.468 0 00-2.46 2.461 2.47 2.47 0 002.46 2.461h24.582a2.467 2.467 0 002.457-2.46 2.465 2.465 0 00-2.457-2.462zm-2.457 7.383h-19.668a2.465 2.465 0 00-2.457 2.46 2.467 2.467 0 002.457 2.462h19.668a2.467 2.467 0 002.457-2.461 2.465 2.465 0 00-2.457-2.461zm0 0"/><g clip-path="url(#d)"><path fill="#e08709" d="M192.496 261.508h-9.832a2.468 2.468 0 00-2.46 2.46 2.47 2.47 0 002.46 2.462h9.832a2.467 2.467 0 002.457-2.461 2.465 2.465 0 00-2.457-2.461zm0 0"/></g></svg>