<svg xmlns="http://www.w3.org/2000/svg" width="500" viewBox="0 0 375 375" height="500" version="1.0"><defs><clipPath id="a"><path d="M112.5 112.5h150v150h-150zm0 0"/></clipPath></defs><g clip-path="url(#a)"><path d="M187.5 112.5c-41.414 0-75 33.586-75 75s33.586 75 75 75 75-33.586 75-75-33.586-75-75-75zm0 8.332c36.922 0 66.668 29.746 66.668 66.668 0 36.922-29.746 66.668-66.668 66.668-36.922 0-66.668-29.746-66.668-66.668 0-36.922 29.746-66.668 66.668-66.668zm-4.168 20.836v9.16c-6.664.836-18.75 6.668-18.75 20.836 0 26.664 38.754 12.918 38.754 32.918 0 6.668-2.918 12.914-15.836 12.914s-16.668-9.996-16.668-15.414H162.5c1.25 17.918 13.75 22.082 20.832 23.332v7.918h8.336v-7.918c6.25-.414 20.832-4.996 20.832-21.664 0-13.75-11.254-17.5-22.086-20-8.75-2.086-16.668-4.168-16.668-12.918 0-3.75 1.668-12.082 14.168-12.082 8.75 0 12.918 5.418 14.168 12.082h8.336c-2.5-9.164-6.668-17.496-18.75-19.578v-9.586zm0 0"/></g></svg>