<svg xmlns="http://www.w3.org/2000/svg" xmlns:xlink="http://www.w3.org/1999/xlink" width="500" zoomAndPan="magnify" viewBox="0 0 375 374.999991" height="500" preserveAspectRatio="xMidYMid meet" version="1.0"><defs><clipPath id="7324b7ba65"><path d="M 221 175 L 262.5 175 L 262.5 216 L 221 216 Z M 221 175 " clip-rule="nonzero"/></clipPath><clipPath id="2ab0c87855"><path d="M 191 239 L 211 239 L 211 258.1875 L 191 258.1875 Z M 191 239 " clip-rule="nonzero"/></clipPath></defs><path fill="#000000" d="M 215.777344 164.738281 C 214.816406 164.089844 213.96875 163.308594 213.234375 162.414062 L 196.152344 179.496094 C 196.929688 180.371094 197.617188 181.3125 198.214844 182.324219 Z M 215.777344 164.738281 " fill-opacity="1" fill-rule="nonzero"/><path fill="#000000" d="M 142.359375 185.085938 L 163.796875 191.0625 C 163.84375 189.863281 163.980469 188.714844 164.234375 187.613281 L 143.09375 181.703125 C 143.023438 182.898438 142.75 184.023438 142.359375 185.085938 Z M 142.359375 185.085938 " fill-opacity="1" fill-rule="nonzero"/><path fill="#000000" d="M 155.269531 210.003906 C 155.542969 210.347656 155.796875 210.738281 156.023438 211.105469 C 156.414062 211.703125 156.757812 212.324219 157.054688 212.945312 L 169.574219 205.242188 C 168.726562 204.4375 167.945312 203.566406 167.28125 202.597656 Z M 155.269531 210.003906 " fill-opacity="1" fill-rule="nonzero"/><path fill="#000000" d="M 200.710938 193.636719 C 200.597656 194.832031 200.367188 195.980469 200.023438 197.085938 L 218.433594 197.085938 C 218.390625 196.511719 218.367188 195.9375 218.367188 195.359375 C 218.367188 194.785156 218.390625 194.210938 218.433594 193.636719 Z M 200.710938 193.636719 " fill-opacity="1" fill-rule="nonzero"/><path fill="#000000" d="M 197.9375 236.003906 L 189.707031 208.761719 C 188.652344 209.222656 187.574219 209.589844 186.425781 209.84375 L 194.679688 237.199219 C 195.691406 236.671875 196.792969 236.257812 197.9375 236.003906 Z M 197.9375 236.003906 " fill-opacity="1" fill-rule="nonzero"/><path fill="#000000" d="M 168.566406 164.277344 C 167.992188 164.621094 167.398438 164.945312 166.800781 165.242188 L 172.742188 175.886719 C 173.726562 175.289062 174.757812 174.785156 175.835938 174.390625 L 169.757812 163.472656 C 169.367188 163.773438 168.980469 164.023438 168.566406 164.277344 Z M 168.566406 164.277344 " fill-opacity="1" fill-rule="nonzero"/><path fill="#000000" d="M 197.363281 191.773438 C 197.363281 183.453125 190.601562 176.667969 182.300781 176.667969 C 173.976562 176.667969 167.214844 183.449219 167.214844 191.773438 C 167.214844 200.117188 173.976562 206.878906 182.300781 206.878906 C 190.601562 206.875 197.363281 200.117188 197.363281 191.773438 Z M 197.363281 191.773438 " fill-opacity="1" fill-rule="nonzero"/><g clip-path="url(#7324b7ba65)"><path fill="#000000" d="M 242.097656 175.015625 C 230.910156 175.015625 221.808594 184.140625 221.808594 195.359375 C 221.808594 206.578125 230.910156 215.703125 242.097656 215.703125 C 253.289062 215.703125 262.390625 206.578125 262.390625 195.359375 C 262.390625 184.140625 253.289062 175.015625 242.097656 175.015625 Z M 242.097656 175.015625 " fill-opacity="1" fill-rule="nonzero"/></g><path fill="#000000" d="M 166.757812 161.335938 C 171.363281 158.484375 174.621094 154.023438 175.882812 148.738281 C 180.09375 131.074219 160.871094 117.222656 145.546875 126.621094 C 135.878906 132.570312 133.023438 145.085938 138.828125 154.597656 C 144.824219 164.371094 157.300781 167.089844 166.757812 161.335938 Z M 166.757812 161.335938 " fill-opacity="1" fill-rule="nonzero"/><path fill="#000000" d="M 223.066406 163.566406 C 228.273438 163.566406 232.515625 159.3125 232.515625 154.09375 C 232.515625 148.851562 228.273438 144.597656 223.066406 144.597656 C 217.863281 144.597656 213.621094 148.851562 213.621094 154.09375 C 213.621094 159.3125 217.863281 163.566406 223.066406 163.566406 Z M 223.066406 163.566406 " fill-opacity="1" fill-rule="nonzero"/><path fill="#000000" d="M 125.140625 206.578125 C 115.671875 212.558594 112.804688 225.15625 118.789062 234.648438 C 124.890625 244.328125 137.515625 246.914062 146.761719 240.996094 C 156.230469 235.019531 159.074219 222.441406 153.113281 212.949219 C 147.011719 203.222656 134.371094 200.667969 125.140625 206.578125 Z M 125.140625 206.578125 " fill-opacity="1" fill-rule="nonzero"/><g clip-path="url(#2ab0c87855)"><path fill="#000000" d="M 200.574219 239.199219 C 195.371094 239.199219 191.128906 243.429688 191.128906 248.671875 C 191.128906 253.890625 195.371094 258.144531 200.574219 258.144531 C 205.777344 258.144531 210.019531 253.890625 210.019531 248.671875 C 210.019531 243.429688 205.777344 239.199219 200.574219 239.199219 Z M 200.574219 239.199219 " fill-opacity="1" fill-rule="nonzero"/></g><path fill="#000000" d="M 130.277344 190.070312 C 135.480469 190.070312 139.722656 185.820312 139.722656 180.601562 C 139.722656 175.359375 135.480469 171.128906 130.277344 171.128906 C 125.070312 171.128906 120.828125 175.359375 120.828125 180.601562 C 120.832031 185.820312 125.070312 190.070312 130.277344 190.070312 Z M 130.277344 190.070312 " fill-opacity="1" fill-rule="nonzero"/></svg>