<svg xmlns="http://www.w3.org/2000/svg" width="500" viewBox="0 0 375 375" height="500" version="1.0"><defs><clipPath id="a"><path d="M221 175h41.5v41H221zm0 0"/></clipPath><clipPath id="b"><path d="M191 239h20v19.188h-20zm0 0"/></clipPath></defs><path fill="#e08709" d="M215.777 164.738a11.89 11.89 0 01-2.543-2.324l-17.082 17.082a18.134 18.134 0 012.063 2.828zm-73.417 20.348l21.437 5.976c.047-1.199.183-2.347.437-3.449l-21.14-5.91c-.07 1.195-.344 2.32-.735 3.383zm12.91 24.918c.273.344.527.734.753 1.101.391.598.735 1.22 1.032 1.84l12.52-7.703c-.848-.804-1.63-1.676-2.294-2.644zm45.44-16.367a16.972 16.972 0 01-.687 3.449h18.41a23.104 23.104 0 01-.066-1.727c0-.574.024-1.148.067-1.722zm-2.772 42.367l-8.231-27.242a17.65 17.65 0 01-3.281 1.082l8.254 27.355a13.328 13.328 0 013.257-1.195zm-29.372-71.727c-.574.344-1.168.668-1.765.965l5.941 10.645a17.64 17.64 0 013.094-1.496l-6.078-10.918c-.39.3-.778.55-1.192.804zm28.797 27.496c0-8.32-6.761-15.105-15.062-15.105-8.324 0-15.086 6.781-15.086 15.105 0 8.344 6.762 15.106 15.086 15.106 8.3-.004 15.062-6.762 15.062-15.106zm0 0"/><g clip-path="url(#a)"><path fill="#e08709" d="M242.098 175.016c-11.188 0-20.29 9.125-20.29 20.343 0 11.22 9.102 20.344 20.29 20.344 11.191 0 20.293-9.125 20.293-20.344 0-11.218-9.102-20.343-20.293-20.343zm0 0"/></g><path fill="#e08709" d="M166.758 161.336c4.605-2.852 7.863-7.313 9.125-12.598 4.21-17.664-15.012-31.515-30.336-22.117-9.668 5.95-12.524 18.465-6.719 27.977 5.996 9.773 18.473 12.492 27.93 6.738zm56.308 2.23c5.207 0 9.45-4.254 9.45-9.472 0-5.242-4.243-9.496-9.45-9.496-5.203 0-9.445 4.254-9.445 9.496 0 5.219 4.242 9.472 9.445 9.472zm-97.926 43.012c-9.468 5.98-12.335 18.578-6.35 28.07 6.1 9.68 18.726 12.266 27.972 6.348 9.468-5.976 12.312-18.555 6.351-28.047-6.101-9.726-18.742-12.281-27.972-6.37zm0 0"/><g clip-path="url(#b)"><path fill="#e08709" d="M200.574 239.2c-5.203 0-9.445 4.23-9.445 9.472 0 5.219 4.242 9.473 9.445 9.473s9.446-4.254 9.446-9.473c0-5.242-4.243-9.473-9.446-9.473zm0 0"/></g><path fill="#e08709" d="M130.277 190.07c5.203 0 9.446-4.25 9.446-9.468 0-5.243-4.243-9.473-9.446-9.473-5.207 0-9.449 4.23-9.449 9.473.004 5.218 4.242 9.468 9.45 9.468zm0 0"/></svg>