<svg xmlns="http://www.w3.org/2000/svg" width="500" viewBox="0 0 375 375" height="500" version="1.0"><defs><clipPath id="a"><path d="M121.125 112.5h132.75v150h-132.75zm0 0"/></clipPath></defs><g clip-path="url(#a)"><path d="M166.156 216.293h5.477v-17.29a2.281 2.281 0 012.281-2.28 2.28 2.28 0 012.277 2.28v17.29h22.645v-17.29a2.284 2.284 0 012.281-2.28 2.28 2.28 0 012.278 2.28v17.29h5.48a3.58 3.58 0 003.57-3.57v-19.078c0-5.547-4.941-8.7-10.562-10.094-9.442-2.34-19.012-2.5-28.735 0-5.609 1.445-10.562 4.543-10.562 10.094v19.078a3.577 3.577 0 003.57 3.57zm-33.988-7.875c6.098 0 11.035 4.941 11.035 11.035s-4.937 11.035-11.035 11.035c-6.094 0-11.031-4.941-11.031-11.035s4.937-11.035 11.031-11.035zm55.348 31.953c6.093 0 11.035 4.941 11.035 11.035s-4.942 11.035-11.035 11.035c-6.094 0-11.036-4.941-11.036-11.035s4.942-11.035 11.036-11.035zm55.343-31.953c6.094 0 11.036 4.941 11.036 11.035s-4.942 11.035-11.036 11.035c-6.093 0-11.035-4.941-11.035-11.035s4.942-11.035 11.035-11.035zm0-63.906c6.094 0 11.036 4.941 11.036 11.035s-4.942 11.035-11.036 11.035c-6.093 0-11.035-4.941-11.035-11.035s4.942-11.035 11.035-11.035zm-55.343-31.953c6.093 0 11.035 4.941 11.035 11.035s-4.942 11.035-11.035 11.035c-6.094 0-11.036-4.941-11.036-11.035s4.942-11.035 11.036-11.035zm-55.348 31.953c6.098 0 11.035 4.941 11.035 11.035s-4.937 11.035-11.035 11.035c-6.094 0-11.031-4.941-11.031-11.035s4.937-11.035 11.031-11.035zm70.14-15.164l28.176 16.27a15.971 15.971 0 00-2.418 4.171l-28.175-16.266a15.93 15.93 0 002.418-4.175zm42.97 41.886v32.532a15.944 15.944 0 00-4.836 0v-32.532a15.944 15.944 0 004.835 0zm-14.794 58.149l-28.175 16.27a15.93 15.93 0 00-2.418-4.176l28.175-16.266a15.971 15.971 0 002.418 4.172zm-57.761 16.27l-28.176-16.27a15.85 15.85 0 002.414-4.172l28.176 16.266a15.81 15.81 0 00-2.414 4.175zm-42.97-41.887v-32.532a15.89 15.89 0 004.833 0v32.532a15.867 15.867 0 00-2.418-.184c-.82 0-1.629.063-2.414.184zm14.794-58.149l28.176-16.27a15.918 15.918 0 002.414 4.176L146.96 149.79a15.85 15.85 0 00-2.414-4.172zm42.969 7.2c6.195 0 11.218 3.53 11.218 11.675 0 8.14-5.023 14.742-11.218 14.742-6.196 0-11.22-6.601-11.22-14.742 0-8.144 5.024-11.676 11.22-11.676zm0 0" fill-rule="evenodd"/></g></svg>