<svg xmlns="http://www.w3.org/2000/svg" viewBox="0 0 256 256" width="48" height="48"><path d="M209.92 10.24c-19.763 0-35.84 16.077-35.84 35.84 0 9.45 3.703 18.03 9.7 24.44l-42.85 52.36H81.51c-2.498-17.34-17.41-30.72-35.43-30.72-19.763 0-35.84 16.077-35.84 35.84s16.077 35.84 35.84 35.84c18.02 0 32.932-13.38 35.43-30.72h59.3l41.12 54.47c-4.903 6.132-7.85 13.886-7.85 22.33 0 19.763 16.077 35.84 35.84 35.84s35.84-16.077 35.84-35.84-16.077-35.84-35.84-35.84c-7.613 0-14.66 2.407-20.47 6.47l-39.58-52.42 41.89-51.21c5.334 3.154 11.527 5 18.16 5 19.763 0 35.84-16.077 35.84-35.84s-16.077-35.84-35.84-35.84z" fill="#73bcc3" font-family="none" font-weight="none" font-size="none" text-anchor="none"/></svg>