<svg xmlns="http://www.w3.org/2000/svg" xmlns:xlink="http://www.w3.org/1999/xlink" viewBox="0,0,256,256" width="48px" height="48px" fill-rule="nonzero"><g fill="#73bcc3" fill-rule="nonzero" stroke="none" stroke-width="1" stroke-linecap="butt" stroke-linejoin="miter" stroke-miterlimit="10" stroke-dasharray="" stroke-dashoffset="0" font-family="none" font-weight="none" font-size="none" text-anchor="none" style="mix-blend-mode: normal"><g transform="scale(4,4)"><path d="M32,10c13.785,0 25,8.951 25,19.954c0,11.003 -11.215,19.953 -25,19.953c-0.646,0 -1.311,-0.022 -1.983,-0.065c-7.369,5.504 -13.411,6.251 -13.672,6.281c-0.076,0.009 -0.152,0.013 -0.228,0.013c-0.7,0 -1.356,-0.368 -1.72,-0.979c-0.402,-0.678 -0.369,-1.528 0.084,-2.172c0.023,-0.033 1.966,-2.8 4.003,-6.234c-7.138,-3.647 -11.484,-9.924 -11.484,-16.797c0,-11.003 11.215,-19.954 25,-19.954z"></path></g></g></svg>